<svg width="38" height="40" viewBox="0 0 38 40" fill="none" xmlns="http://www.w3.org/2000/svg"><path d="M37.8 8.8C37.8 7.4 37.6 6 37.2 4.6C36.7 2.9 35.4 1.6 33.8 0.900001C30.5 -0.299999 26.9 -0.299999 23.6 0.900001C21.9 1.5 20.7 2.9 20.2 4.6C19.4 7.4 19.4 10.3 20.2 13.1C20.7 14.8 22 16.1 23.6 16.8C25.2 17.4 27 17.7 28.7 17.6C30.4 17.6 32.2 17.3 33.8 16.8C35.5 16.2 36.7 14.8 37.2 13.1C37.6 11.6 37.8 10.2 37.8 8.8ZM32.3 8.8C32.3 9.5 32.2 10.2 32 10.8C31.7 11.7 31 12.4 30 12.6C29.1 12.8 28.2 12.8 27.4 12.6C26.5 12.4 25.7 11.8 25.4 10.8C25 9.5 25 8 25.4 6.7C25.7 5.8 26.4 5.1 27.4 4.9C28.3 4.7 29.2 4.7 30 4.9C30.9 5.1 31.7 5.7 32 6.7C32.2 7.4 32.3 8.1 32.3 8.8ZM17.7 31.8C18.5 29 18.5 26.1 17.7 23.3C17.2 21.6 15.9 20.3 14.3 19.6C11 18.4 7.4 18.4 4.1 19.6C2.4 20.2 1.2 21.6 0.7 23.3C-0.0999996 26.1 -0.0999996 29 0.7 31.8C1.2 33.5 2.5 34.8 4.1 35.5C7.4 36.7 11 36.7 14.3 35.5C15.9 34.9 17.2 33.5 17.7 31.8ZM12.8 27.6C12.8 28.3 12.7 29 12.5 29.6C12.2 30.5 11.5 31.2 10.5 31.4C9.6 31.6 8.7 31.6 7.9 31.4C7 31.2 6.2 30.6 5.9 29.6C5.5 28.2 5.5 26.8 5.9 25.5C6.2 24.6 6.9 23.9 7.9 23.7C8.8 23.5 9.7 23.5 10.5 23.7C11.4 23.9 12.2 24.5 12.5 25.5C12.7 26.2 12.8 26.9 12.8 27.6ZM12.8 8.7H18.3C18.3 7.3 18.1 5.9 17.7 4.5C17.2 2.8 15.9 1.5 14.3 0.800001C11 -0.299999 7.4 -0.299999 4.1 0.900001C2.4 1.5 1.2 2.9 0.7 4.6C-0.0999996 7.4 -0.0999996 10.3 0.7 13.1C1.2 14.8 2.5 16.1 4.1 16.8C5.7 17.4 7.5 17.6 9.2 17.6C10.9 17.6 12.7 17.3 14.3 16.8C16 16.2 17.2 14.8 17.7 13.1C17.8 12.9 17.8 12.6 17.9 12.4L12.7 10C12.6 10.3 12.6 10.6 12.5 10.9C12.2 11.8 11.5 12.5 10.5 12.7C9.6 12.9 8.7 12.9 7.9 12.7C7 12.5 6.2 11.9 5.9 10.9C5.5 9.5 5.5 8 5.9 6.7C6.2 5.8 6.9 5.1 7.9 4.9C8.8 4.7 9.7 4.7 10.5 4.9C11.4 5.1 12.2 5.7 12.5 6.7C12.7 7.4 12.8 8 12.8 8.7ZM20.2 23.3C19.8 24.7 19.6 26.1 19.6 27.5V40H25.1V27.6C25.1 26.9 25.2 26.2 25.4 25.6C25.7 24.7 26.4 24 27.4 23.8C28.3 23.6 29.2 23.6 30 23.8C30.9 24 31.7 24.6 32 25.6C32.4 27 32.4 28.4 32 29.7C31.7 30.6 31 31.3 30.1 31.5C29.2 31.7 28.3 31.7 27.5 31.5C27.3 31.4 27.1 31.4 27 31.3L28.9 36.4C30.6 36.4 32.4 36.1 34 35.6C35.7 35 36.9 33.6 37.4 31.9C38.2 29.1 38.2 26.2 37.4 23.4C36.9 21.7 35.6 20.4 34 19.7C30.7 18.5 27.1 18.5 23.8 19.7C21.9 20.3 20.7 21.7 20.2 23.3Z" fill="#00B1E7"/></svg>
